<?xml version="1.0" encoding="UTF-8" standalone="no"?>
<svg
   xmlns:dc="http://purl.org/dc/elements/1.1/"
   xmlns:cc="http://creativecommons.org/ns#"
   xmlns:rdf="http://www.w3.org/1999/02/22-rdf-syntax-ns#"
   xmlns:svg="http://www.w3.org/2000/svg"
   xmlns="http://www.w3.org/2000/svg"
   xmlns:sodipodi="http://sodipodi.sourceforge.net/DTD/sodipodi-0.dtd"
   xmlns:inkscape="http://www.inkscape.org/namespaces/inkscape"
   inkscape:version="1.0beta2 (2b71d25, 2019-12-03)"
   height="63.948658"
   width="178.67722"
   sodipodi:docname="logo-web-version.svg"
   version="1.1"
   viewBox="0 0 178.67722 63.948658"
   id="logo_svg">
  <metadata
     id="metadata60">
    <rdf:RDF>
      <cc:Work
         rdf:about="">
        <dc:format>image/svg+xml</dc:format>
        <dc:type
           rdf:resource="http://purl.org/dc/dcmitype/StillImage" />
        <dc:title></dc:title>
      </cc:Work>
    </rdf:RDF>
  </metadata>
  <defs
     id="defs58" />
  <sodipodi:namedview
     inkscape:current-layer="logo_svg"
     inkscape:cy="12.9496"
     inkscape:cx="80.811168"
     inkscape:zoom="7.8833333"
     fit-margin-bottom="0"
     fit-margin-right="0"
     fit-margin-left="0"
     fit-margin-top="0"
     showgrid="false"
     id="namedview56"
     inkscape:window-height="480"
     inkscape:window-width="640"
     inkscape:pageshadow="2"
     inkscape:pageopacity="0"
     guidetolerance="10"
     gridtolerance="10"
     objecttolerance="10"
     borderopacity="1"
     inkscape:document-rotation="0"
     bordercolor="#666666"
     pagecolor="#ffffff" />
  <path
     inkscape:connector-curvature="0"
     d="m 14.15753,59.448658 -2.5228,-40.11744 c -0.46829,-4.454993 1.98706,-9.285684 7.97326,-10.053239 5.53941,-0.710268 9.64472,3.041994 10.05323,7.626594 l 1.1205,20.910047 c 0.2822,4.78948 4.1575,7.708023 7.53182,7.957324 3.26892,0.241514 4.68526,-0.415439 7.56369,-2.694749"
     style="fill:none;stroke:#000000;stroke-width:9;stroke-linecap:round;stroke-miterlimit:4;stroke-dasharray:none"
     id="logo_0_outline"
     sodipodi:nodetypes="ccsccsc" />
  <path
     inkscape:connector-curvature="0"
     d="M 4.5,32.698783 28.36104,31.315189"
     id="logo_1_outline"
     style="fill:none;stroke:#000000;stroke-width:9;stroke-linecap:round;stroke-miterlimit:4;stroke-dasharray:none"
     sodipodi:nodetypes="cc" />
  <path
     sodipodi:nodetypes="ccc"
     inkscape:connector-curvature="0"
     d="m 45.39902,14.343573 1.26953,21.381561 c 0.62444,6.472619 6.23762,8.765968 10.93607,7.555088"
     id="logo_2_outline"
     style="fill:none;stroke:#000000;stroke-width:9;stroke-linecap:round;stroke-miterlimit:4;stroke-dasharray:none" />
  <path
     sodipodi:nodetypes="csc"
     inkscape:connector-curvature="0"
     d="m 84.219918,37.195116 c 1.804067,4.610401 0.244576,9.547589 -3.741774,11.626226 C 75.6788,51.323903 70.99008,50.090871 67.78284,45.614108"
     id="logo_5_outline"
     style="fill:none;stroke:#000000;stroke-width:9;stroke-linecap:round;stroke-miterlimit:4;stroke-dasharray:none" />
  <path
     sodipodi:nodetypes="csc"
     inkscape:connector-curvature="0"
     id="logo_6_outline"
     d="m 93.965709,26.753543 c -1.80407,-4.610401 -0.24458,-9.54759 3.74177,-11.626225 4.799341,-2.502562 9.488071,-1.269529 12.695301,3.207234"
     style="fill:none;stroke:#000000;stroke-width:9;stroke-linecap:round;stroke-miterlimit:4;stroke-dasharray:none" />
  <path
     sodipodi:nodetypes="cc"
     inkscape:connector-curvature="0"
     id="logo_7_outline"
     d="M 100.38017,45.261956 C 98.575419,40.664381 89.362586,12.898421 89.362586,12.898421"
     style="fill:none;stroke:#000000;stroke-width:9;stroke-linecap:round;stroke-miterlimit:4;stroke-dasharray:none" />
  <path
     sodipodi:nodetypes="cssc"
     inkscape:connector-curvature="0"
     id="logo_8_outline"
     d="m 100.38017,45.261956 c -1.229751,-2.913028 -0.660331,-9.334305 5.08309,-11.474626 4.15355,-1.547847 9.81755,-0.356722 11.94724,5.303109 2.61381,6.946402 4.0689,11.067925 4.81896,13.222182"
     style="fill:none;stroke:#000000;stroke-width:9;stroke-linecap:round;stroke-miterlimit:4;stroke-dasharray:none" />
  <path
     style="fill:none;stroke:#ff0000;stroke-width:9;stroke-linecap:round;stroke-miterlimit:4;stroke-dasharray:none"
     d="m 132.7866,49.605087 -1.26953,-21.381561 c -0.30905,-5.376848 -4.79248,-8.93788 -10.93606,-6.79399"
     id="logo_9"
     inkscape:connector-curvature="0"
     sodipodi:nodetypes="ccc" />
  <path
     sodipodi:nodetypes="ccsccsc"
     style="fill:none;stroke:#00ff00;stroke-width:9;stroke-linecap:round;stroke-miterlimit:4;stroke-dasharray:none"
     d="m 164.02809,4.5 2.52281,40.117442 c 0.46828,4.454993 -1.98707,9.285684 -7.97326,10.053239 -5.53941,0.710268 -9.64472,-3.041994 -10.05324,-7.626595 L 147.40391,26.13404 c -0.2822,-4.789482 -4.15751,-7.708024 -7.53183,-7.957325 -3.26891,-0.241514 -4.68526,0.415438 -7.56369,2.694749"
     id="logo_10"
     inkscape:connector-curvature="0" />
  <path
     style="fill:none;stroke:#0000ff;stroke-width:9;stroke-linecap:round;stroke-miterlimit:4;stroke-dasharray:none"
     id="logo_11"
     d="M 174.17721,31.249875 151.5,32.633472"
     inkscape:connector-curvature="0"
     sodipodi:nodetypes="cc" />
  <path
     style="fill:none;stroke:#000000;stroke-width:9;stroke-linecap:round;stroke-miterlimit:4;stroke-dasharray:none"
     d="m 117.39904,39.068205 c 1.62624,4.298648 -0.27807,9.677632 -5.19219,11.539143 -5.17744,1.961259 -9.90889,-0.459857 -11.82668,-5.345392"
     id="logo_7_outline-4"
     inkscape:connector-curvature="0"
     sodipodi:nodetypes="csc" />
  <path
     style="fill:none;stroke:#000000;stroke-width:9;stroke-linecap:round;stroke-miterlimit:4;stroke-dasharray:none"
     d="m 77.80545,18.686703 c 1.804755,4.597575 11.017588,32.363535 11.017588,32.363535"
     id="logo_7_outline-3"
     inkscape:connector-curvature="0"
     sodipodi:nodetypes="cc" />
  <path
     style="fill:none;stroke:#000000;stroke-width:9;stroke-linecap:round;stroke-miterlimit:4;stroke-dasharray:none"
     d="m 77.80545,18.686703 c 1.229755,2.913028 0.66033,9.334305 -5.08309,11.474626 -4.15355,1.547847 -9.81755,0.356722 -11.94724,-5.303109 -2.61381,-6.946402 -4.0689,-11.067925 -4.81896,-13.222182"
     id="logo_8_outline-9"
     inkscape:connector-curvature="0"
     sodipodi:nodetypes="cssc" />
  <path
     sodipodi:nodetypes="csc"
     inkscape:connector-curvature="0"
     id="logo_7_outline-4-0"
     d="m 60.78658,24.880454 c -1.62624,-4.298648 0.27807,-9.677632 5.19219,-11.539143 5.17744,-1.961259 9.90889,0.459857 11.82668,5.345392"
     style="fill:none;stroke:#000000;stroke-width:9;stroke-linecap:round;stroke-miterlimit:4;stroke-dasharray:none" />
</svg>
